<svg xmlns="http://www.w3.org/2000/svg" xmlns:xlink="http://www.w3.org/1999/xlink" viewBox="0 0 249.9 203.2" width="14" height="14">
  <path d="M78.5,203.2c94.3,0,145.9-78.2,145.9-145.9c0-2.2,0-4.4-0.1-6.6c10-7.2,18.7-16.3,25.6-26.6c-9.2,4.1-19.1,6.8-29.5,8.1 C231,25.9,239.1,15.8,243,3.8c-9.9,5.9-20.9,10.1-32.6,12.4C201,6.2,187.7,0,173,0c-28.3,0-51.3,23-51.3,51.3c0,4,0.5,7.9,1.3,11.7 C80.4,60.9,42.6,40.4,17.3,9.4c-4.4,7.6-6.9,16.4-6.9,25.8c0,17.8,9.1,33.5,22.8,42.7c-8.4-0.3-16.3-2.6-23.2-6.4c0,0.2,0,0.4,0,0.7 c0,24.8,17.7,45.6,41.1,50.3c-4.3,1.2-8.8,1.8-13.5,1.8c-3.3,0-6.5-0.3-9.6-0.9c6.5,20.4,25.5,35.2,47.9,35.6 c-17.6,13.8-39.7,22-63.7,22c-4.1,0-8.2-0.2-12.2-0.7C22.6,194.7,49.6,203.2,78.5,203.2"/>
</svg>
